<?xml version="1.0" encoding="UTF-8" standalone="no"?>
<!-- Created with Inkscape (http://www.inkscape.org/) -->

<svg
   xmlns:dc="http://purl.org/dc/elements/1.1/"
   xmlns:cc="http://creativecommons.org/ns#"
   xmlns:rdf="http://www.w3.org/1999/02/22-rdf-syntax-ns#"
   xmlns:svg="http://www.w3.org/2000/svg"
   xmlns="http://www.w3.org/2000/svg"
   xmlns:sodipodi="http://sodipodi.sourceforge.net/DTD/sodipodi-0.dtd"
   xmlns:inkscape="http://www.inkscape.org/namespaces/inkscape"
   width="210mm"
   height="297mm"
   viewBox="0 0 744.09448819 1052.3622047"
   id="svg4561"
   version="1.1"
   inkscape:version="0.91 r"
   sodipodi:docname="offline-pgm-prior.svg"
   inkscape:export-filename="/home/arya/workspace/biocaddie/ranking/paper/offline-pgm-prior.png"
   inkscape:export-xdpi="500"
   inkscape:export-ydpi="500">
  <sodipodi:namedview
     id="base"
     pagecolor="#ffffff"
     bordercolor="#666666"
     borderopacity="1.0"
     inkscape:pageopacity="0.0"
     inkscape:pageshadow="2"
     inkscape:zoom="2.8"
     inkscape:cx="370.12952"
     inkscape:cy="467.92936"
     inkscape:document-units="px"
     inkscape:current-layer="layer1"
     showgrid="false"
     inkscape:window-width="3775"
     inkscape:window-height="2136"
     inkscape:window-x="65"
     inkscape:window-y="24"
     inkscape:window-maximized="1" />
  <defs
     id="defs4563">
    <marker
       inkscape:isstock="true"
       style="overflow:visible;"
       id="marker5816"
       refX="0.0"
       refY="0.0"
       orient="auto"
       inkscape:stockid="Arrow1Mend">
      <path
         transform="scale(0.4) rotate(180) translate(10,0)"
         style="fill-rule:evenodd;stroke:#000000;stroke-width:1pt;stroke-opacity:1;fill:#000000;fill-opacity:1"
         d="M 0.0,0.0 L 5.0,-5.0 L -12.5,0.0 L 5.0,5.0 L 0.0,0.0 z "
         id="path5818" />
    </marker>
    <marker
       inkscape:stockid="Arrow1Mend"
       orient="auto"
       refY="0.0"
       refX="0.0"
       id="marker5788"
       style="overflow:visible;"
       inkscape:isstock="true">
      <path
         id="path5790"
         d="M 0.0,0.0 L 5.0,-5.0 L -12.5,0.0 L 5.0,5.0 L 0.0,0.0 z "
         style="fill-rule:evenodd;stroke:#000000;stroke-width:1pt;stroke-opacity:1;fill:#000000;fill-opacity:1"
         transform="scale(0.4) rotate(180) translate(10,0)" />
    </marker>
    <marker
       inkscape:stockid="Arrow1Mend"
       orient="auto"
       refY="0.0"
       refX="0.0"
       id="Arrow1Mend"
       style="overflow:visible;"
       inkscape:isstock="true"
       inkscape:collect="always">
      <path
         id="path5513"
         d="M 0.0,0.0 L 5.0,-5.0 L -12.5,0.0 L 5.0,5.0 L 0.0,0.0 z "
         style="fill-rule:evenodd;stroke:#000000;stroke-width:1pt;stroke-opacity:1;fill:#000000;fill-opacity:1"
         transform="scale(0.4) rotate(180) translate(10,0)" />
    </marker>
    <marker
       inkscape:isstock="true"
       style="overflow:visible"
       id="marker14291"
       refX="0"
       refY="0"
       orient="auto"
       inkscape:stockid="Arrow2Lend">
      <path
         inkscape:connector-curvature="0"
         transform="matrix(-1.1,0,0,-1.1,-1.1,0)"
         d="M 8.7185878,4.0337352 -2.2072895,0.01601326 8.7185884,-4.0017078 c -1.7454984,2.3720609 -1.7354408,5.6174519 -6e-7,8.035443 z"
         style="fill:#000000;fill-opacity:1;fill-rule:evenodd;stroke:#000000;stroke-width:0.625;stroke-linejoin:round;stroke-opacity:1"
         id="path14293" />
    </marker>
  </defs>
  <metadata
     id="metadata4566">
    <rdf:RDF>
      <cc:Work
         rdf:about="">
        <dc:format>image/svg+xml</dc:format>
        <dc:type
           rdf:resource="http://purl.org/dc/dcmitype/StillImage" />
        <dc:title></dc:title>
      </cc:Work>
    </rdf:RDF>
  </metadata>
  <g
     inkscape:label="Layer 1"
     inkscape:groupmode="layer"
     id="layer1">
    <circle
       r="24.201395"
       cy="718.33759"
       cx="356.57092"
       id="path3346-3-70"
       style="fill:#ffffff;fill-rule:evenodd;stroke:#000000;stroke-width:1.59721029;stroke-linecap:butt;stroke-linejoin:miter;stroke-miterlimit:4;stroke-dasharray:none;stroke-opacity:1"
       inkscape:export-filename="/home/arya/workspace/biocaddie/ranking/paper/path5496.png"
       inkscape:export-xdpi="500"
       inkscape:export-ydpi="500" />
    <circle
       r="24.201395"
       cy="590.83759"
       cx="457.10663"
       id="path3346-3-74"
       style="fill:#b3b3b3;fill-rule:evenodd;stroke:#000000;stroke-width:1.59721029;stroke-linecap:butt;stroke-linejoin:miter;stroke-miterlimit:4;stroke-dasharray:none;stroke-opacity:1"
       inkscape:export-filename="/home/arya/workspace/biocaddie/ranking/paper/path5496.png"
       inkscape:export-xdpi="500"
       inkscape:export-ydpi="500" />
    <g
       transform="matrix(0.6,0,0,0.6,268.3097,384.11543)"
       id="g6098">
      <g
         style="font-style:normal;font-variant:normal;font-weight:normal;font-stretch:normal;letter-spacing:normal;word-spacing:normal;text-anchor:start;fill:none;fill-opacity:1;fill-rule:evenodd;stroke:#000000;stroke-linecap:butt;stroke-linejoin:miter;stroke-miterlimit:10.43299961;stroke-dasharray:none;stroke-dashoffset:0;stroke-opacity:1"
         id="g6100"
         transform="matrix(1.0629921,0,0,-1.0629921,-186.02362,789.27165)"
         xml:space="preserve"
         stroke-miterlimit="10.433"
         font-style="normal"
         font-variant="normal"
         font-weight="normal"
         font-stretch="normal"
         font-size-adjust="none"
         letter-spacing="normal"
         word-spacing="normal" />    </g>
    <path
       style="fill:none;fill-rule:evenodd;stroke:#000000;stroke-width:0;stroke-linecap:butt;stroke-linejoin:miter;stroke-miterlimit:4;stroke-dasharray:none;stroke-opacity:1"
       d="m 457.74948,488.69476 0,75.73712"
       id="path14283"
       inkscape:connector-curvature="0" />
    <g
       id="g5218"
       transform="matrix(0.6,0,0,0.6,268.37346,384.47249)"
       inkscape:export-filename="/home/arya/workspace/biocaddie/ranking/paper/path5496.png"
       inkscape:export-xdpi="500"
       inkscape:export-ydpi="500">
      <g
         word-spacing="normal"
         letter-spacing="normal"
         font-size-adjust="none"
         font-stretch="normal"
         font-weight="normal"
         font-variant="normal"
         font-style="normal"
         stroke-miterlimit="10.433"
         xml:space="preserve"
         transform="matrix(1.0629921,0,0,-1.0629921,-186.02362,789.27165)"
         id="g5220"
         style="font-style:normal;font-variant:normal;font-weight:normal;font-stretch:normal;letter-spacing:normal;word-spacing:normal;text-anchor:start;fill:none;fill-opacity:1;fill-rule:evenodd;stroke:#000000;stroke-linecap:butt;stroke-linejoin:miter;stroke-miterlimit:10.43299961;stroke-dasharray:none;stroke-dashoffset:0;stroke-opacity:1"><path
           id="path5222"
           d="m 472.75,418.45 5.83,6.48 c 0.66,0.71 0.96,1.05 5.1,1.05 l 0,2.34 c -1.75,-0.11 -4.35,-0.15 -4.6,-0.15 -1.25,0 -3.73,0.11 -5.12,0.15 l 0,-2.34 c 0.68,0 1.29,-0.11 1.89,-0.45 -0.21,-0.3 -0.21,-0.39 -0.41,-0.6 l -4.17,-4.68 -4.89,5.73 2,0 0,2.34 c -1.3,-0.04 -4.44,-0.15 -6.03,-0.15 -1.6,0 -3.85,0.11 -5.49,0.15 l 0,-2.34 3.53,0 7.79,-9.17 -6.54,-7.33 c -0.84,-0.94 -2.64,-0.94 -5.03,-0.94 l 0,-2.34 c 1.75,0.09 4.35,0.16 4.58,0.16 1.25,0 4.14,-0.11 5.14,-0.16 l 0,2.34 c -0.89,0 -1.84,0.25 -1.84,0.55 0,0.05 0,0.09 0.34,0.5 l 4.85,5.42 5.46,-6.47 -1.93,0 0,-2.34 c 1.29,0.05 4.33,0.16 5.98,0.16 1.6,0 3.83,-0.11 5.47,-0.16 l 0,2.34 -3.53,0 z"
           inkscape:connector-curvature="0"
           style="fill:#000000;stroke-width:0" /></g>    </g>
    <g
       transform="matrix(0.6,0,0,0.6,80.730782,380.22164)"
       id="g5264">
      <g
         style="font-style:normal;font-variant:normal;font-weight:normal;font-stretch:normal;letter-spacing:normal;word-spacing:normal;text-anchor:start;fill:none;fill-opacity:1;fill-rule:evenodd;stroke:#000000;stroke-linecap:butt;stroke-linejoin:miter;stroke-miterlimit:10.43299961;stroke-dasharray:none;stroke-dashoffset:0;stroke-opacity:1"
         id="content"
         transform="matrix(1.0629921,0,0,-1.0629921,-186.02362,789.27165)"
         xml:space="preserve"
         stroke-miterlimit="10.433"
         font-style="normal"
         font-variant="normal"
         font-weight="normal"
         font-stretch="normal"
         font-size-adjust="none"
         letter-spacing="normal"
         word-spacing="normal"><path
           style="fill:#000000;stroke-width:0"
           inkscape:connector-curvature="0"
           d="m 480.72,424.93 0.07,0.13 0.06,0.12 0.04,0.06 0.03,0.05 0.04,0.05 0.04,0.05 0.05,0.05 0.05,0.05 0.05,0.04 0.06,0.04 0.06,0.04 0.07,0.04 0.08,0.04 0.09,0.03 0.09,0.03 0.1,0.03 0.12,0.03 0.12,0.02 0.13,0.03 0.07,0.01 0.07,0.01 0.08,0.01 0.08,0.01 0.08,0.01 0.09,0.01 0.09,0 0.09,0.01 0.1,0.01 0.1,0 0.1,0.01 0.11,0 0.11,0.01 0.11,0 0.12,0.01 0.12,0 0.13,0 0.13,0.01 0.13,0 0.14,0 0.14,0 0.15,0 0,2.34 c -1.19,-0.11 -2.69,-0.15 -3.94,-0.15 -1.23,0 -3.48,0.11 -4.53,0.15 l 0,-2.34 c 0.11,0 2.35,0 2.35,-0.59 0,-0.07 -0.21,-0.55 -0.25,-0.61 l -5.72,-12.25 -6.33,13.45 2.69,0 0,2.34 c -1.64,-0.11 -6.13,-0.15 -6.19,-0.15 -1.39,0 -3.63,0.11 -5.67,0.15 l 0,-2.34 3.18,0 9.32,-19.78 -1.14,-2.39 c -1.1,-2.39 -2.69,-5.78 -6.24,-5.78 -0.69,0 -0.8,0.04 -1.19,0.2 0.44,0.2 1.6,0.89 1.6,2.64 0,1.64 -1.21,2.84 -2.89,2.84 -1.39,0 -2.85,-0.95 -2.85,-2.89 0,-2.54 2.35,-4.59 5.33,-4.59 3.85,0 6.74,3.09 8.08,5.94 z"
           id="path5267" /></g>    </g>
    <g
       transform="matrix(0.6,0,0,0.6,167.11069,508.81783)"
       id="g5305"
       inkscape:export-filename="/home/arya/workspace/biocaddie/ranking/paper/path5496.png"
       inkscape:export-xdpi="500"
       inkscape:export-ydpi="500">
      <g
         style="font-style:normal;font-variant:normal;font-weight:normal;font-stretch:normal;letter-spacing:normal;word-spacing:normal;text-anchor:start;fill:none;fill-opacity:1;fill-rule:evenodd;stroke:#000000;stroke-linecap:butt;stroke-linejoin:miter;stroke-miterlimit:10.43299961;stroke-dasharray:none;stroke-dashoffset:0;stroke-opacity:1"
         word-spacing="normal"
         letter-spacing="normal"
         font-size-adjust="none"
         font-stretch="normal"
         font-weight="normal"
         font-variant="normal"
         font-style="normal"
         stroke-miterlimit="10.433"
         xml:space="preserve"
         transform="matrix(1.0629921,0,0,-1.0629921,-186.02362,789.27165)"
         id="g5307"><path
           style="fill:#000000;stroke-width:0"
           inkscape:connector-curvature="0"
           id="path5309"
           d="m 477.35,424.68 -0.17,0.23 -0.17,0.22 -0.18,0.21 -0.19,0.21 -0.19,0.21 -0.19,0.19 -0.2,0.19 -0.21,0.19 -0.21,0.18 -0.21,0.17 -0.22,0.16 -0.23,0.16 -0.23,0.15 -0.23,0.15 -0.23,0.14 -0.24,0.13 -0.25,0.12 -0.25,0.12 -0.25,0.11 -0.25,0.1 -0.26,0.09 -0.26,0.09 -0.26,0.08 -0.26,0.07 -0.27,0.06 -0.27,0.06 -0.27,0.04 -0.28,0.04 -0.27,0.03 -0.28,0.02 -0.27,0.02 -0.28,0 c -7.27,0 -12.41,-4.44 -12.41,-11.36 0,-7.03 5.03,-11.36 11.95,-11.36 l 0.5,1.8 c -3.07,0 -6.07,2.89 -6.07,9.51 0,7.07 3.68,9.41 6.68,9.41 3.78,0 6.17,-3.94 6.17,-6.42 l 0,-6.92 c 0,-0.91 0,-1.05 -0.75,-2.1 -1.98,-2.93 -4.53,-3.48 -6.03,-3.48 l -0.5,-1.8 c 2.46,0 4.69,0.71 6.99,2.69 l 0,-9.72 -3.44,0 0,-2.34 c 1.39,0.06 4.38,0.15 6.28,0.15 1.94,0 4.88,-0.09 6.27,-0.15 l 0,2.34 -3.44,0 0,29.75 -2.03,0 z" /></g>    </g>
    <circle
       r="24.201395"
       cy="590.83759"
       cx="269.20566"
       id="path3346-3-70-6"
       style="fill:none;fill-rule:evenodd;stroke:#000000;stroke-width:1.59721029;stroke-linecap:butt;stroke-linejoin:miter;stroke-miterlimit:4;stroke-dasharray:none;stroke-opacity:1" />
    <circle
       r="24.201395"
       cy="452.36221"
       cx="355.99695"
       id="path3346-3-70-69"
       style="fill:#b3b3b3;fill-rule:evenodd;stroke:#000000;stroke-width:1.59721029;stroke-linecap:butt;stroke-linejoin:miter;stroke-miterlimit:4;stroke-dasharray:none;stroke-opacity:1" />
    <g
       id="g5460"
       transform="matrix(0.6,0,0,0.6,168.88695,244.97032)">
      <g
         word-spacing="normal"
         letter-spacing="normal"
         font-size-adjust="none"
         font-stretch="normal"
         font-weight="normal"
         font-variant="normal"
         font-style="normal"
         stroke-miterlimit="10.433"
         xml:space="preserve"
         transform="matrix(1.0629921,0,0,-1.0629921,-186.02362,789.27165)"
         id="g5462"
         style="font-style:normal;font-variant:normal;font-weight:normal;font-stretch:normal;letter-spacing:normal;word-spacing:normal;text-anchor:start;fill:none;fill-opacity:1;fill-rule:evenodd;stroke:#000000;stroke-linecap:butt;stroke-linejoin:miter;stroke-miterlimit:10.43299961;stroke-dasharray:none;stroke-dashoffset:0;stroke-opacity:1"><path
           id="path5464"
           d="m 473.46,426.48 -0.09,-0.08 -0.07,-0.07 -0.08,-0.08 -0.07,-0.08 -0.06,-0.08 -0.06,-0.08 -0.06,-0.08 -0.05,-0.08 -0.05,-0.08 -0.05,-0.08 -0.04,-0.09 -0.04,-0.08 -0.03,-0.08 -0.04,-0.08 -0.03,-0.08 -0.02,-0.08 -0.03,-0.07 -0.02,-0.08 -0.02,-0.08 -0.02,-0.07 -0.01,-0.07 -0.01,-0.07 -0.01,-0.07 -0.01,-0.07 -0.01,-0.06 -0.01,-0.06 0,-0.06 -0.01,-0.06 0,-0.05 0,-0.05 0,-0.05 0,-0.05 c 0,-2.18 1.75,-3.14 3.09,-3.14 1.55,0 3.14,1.05 3.14,3.14 0,4.28 -5.78,4.58 -8.67,4.58 -8.92,0 -12.61,-5.72 -12.61,-11.5 0,-6.62 4.69,-11.36 12.36,-11.36 8.06,0 9.56,5.78 9.56,6.13 0,0.7 -0.7,0.7 -1.19,0.7 -0.9,0 -0.95,-0.11 -1.2,-0.75 -1.3,-3.14 -3.69,-4.09 -6.22,-4.09 -6.93,0 -6.93,7.32 -6.93,9.62 0,2.78 0,9.27 6.43,9.27 1.74,0 2.58,-0.16 3.24,-0.3 z"
           inkscape:connector-curvature="0"
           style="fill:#000000;stroke-width:0" /></g>    </g>
    <path
       style="fill:none;fill-rule:evenodd;stroke:#000000;stroke-width:1px;stroke-linecap:butt;stroke-linejoin:miter;stroke-opacity:1;marker-end:url(#marker5816)"
       d="m 446.78572,612.8979 c -0.89286,0.35714 -76.96429,83.39285 -76.96429,83.39285"
       id="path5494"
       inkscape:connector-curvature="0"
       inkscape:export-filename="/home/arya/workspace/biocaddie/ranking/paper/path5496.png"
       inkscape:export-xdpi="500"
       inkscape:export-ydpi="500" />
    <path
       style="fill:none;fill-rule:evenodd;stroke:#000000;stroke-width:1px;stroke-linecap:butt;stroke-linejoin:miter;stroke-opacity:1;marker-end:url(#marker5788)"
       d="m 277.85714,613.61218 63.03572,83.39286"
       id="path5496"
       inkscape:connector-curvature="0"
       inkscape:export-filename="/home/arya/workspace/biocaddie/ranking/paper/path5496.png"
       inkscape:export-xdpi="500"
       inkscape:export-ydpi="500" />
    <path
       style="fill:none;fill-rule:evenodd;stroke:#000000;stroke-width:1px;stroke-linecap:butt;stroke-linejoin:miter;stroke-opacity:1;marker-end:url(#Arrow1Mend)"
       d="m 351.60714,476.6479 -76.96428,89.64285"
       id="path5498"
       inkscape:connector-curvature="0" />
  </g>
</svg>
